<mxfile host="Electron" modified="2023-04-29T14:55:11.020Z" agent="Mozilla/5.0 (Macintosh; Intel Mac OS X 10_15_7) AppleWebKit/537.36 (KHTML, like Gecko) draw.io/21.2.1 Chrome/112.0.5615.87 Electron/24.1.2 Safari/537.36" etag="SHX8VYqFuh-EUA74B-FG" version="21.2.1" type="device">
  <diagram name="第 1 页" id="0JfpAlmXgNSfFacUV4ay">
    <mxGraphModel dx="1010" dy="677" grid="1" gridSize="10" guides="1" tooltips="1" connect="1" arrows="1" fold="1" page="1" pageScale="1" pageWidth="827" pageHeight="1169" math="0" shadow="0">
      <root>
        <mxCell id="0" />
        <mxCell id="1" parent="0" />
        <mxCell id="L-mTov4e_6vysFMjAk-3-1" value="" style="rounded=0;whiteSpace=wrap;html=1;" vertex="1" parent="1">
          <mxGeometry x="184" y="160" width="230" height="80" as="geometry" />
        </mxCell>
        <mxCell id="L-mTov4e_6vysFMjAk-3-2" value="进程" style="ellipse;whiteSpace=wrap;html=1;aspect=fixed;" vertex="1" parent="1">
          <mxGeometry x="210" y="175" width="50" height="50" as="geometry" />
        </mxCell>
        <mxCell id="L-mTov4e_6vysFMjAk-3-4" value="进程" style="ellipse;whiteSpace=wrap;html=1;aspect=fixed;" vertex="1" parent="1">
          <mxGeometry x="274" y="175" width="50" height="50" as="geometry" />
        </mxCell>
        <mxCell id="L-mTov4e_6vysFMjAk-3-5" value="进程" style="ellipse;whiteSpace=wrap;html=1;aspect=fixed;" vertex="1" parent="1">
          <mxGeometry x="340" y="175" width="50" height="50" as="geometry" />
        </mxCell>
        <mxCell id="L-mTov4e_6vysFMjAk-3-8" value="操作系统内核" style="rounded=0;whiteSpace=wrap;html=1;" vertex="1" parent="1">
          <mxGeometry x="184" y="270" width="230" height="80" as="geometry" />
        </mxCell>
        <mxCell id="L-mTov4e_6vysFMjAk-3-13" value="虚拟机监控器" style="rounded=0;whiteSpace=wrap;html=1;" vertex="1" parent="1">
          <mxGeometry x="184" y="380" width="230" height="80" as="geometry" />
        </mxCell>
        <mxCell id="L-mTov4e_6vysFMjAk-3-14" value="" style="endArrow=none;dashed=1;html=1;rounded=0;" edge="1" parent="1">
          <mxGeometry width="50" height="50" relative="1" as="geometry">
            <mxPoint x="80" y="360" as="sourcePoint" />
            <mxPoint x="520" y="360" as="targetPoint" />
          </mxGeometry>
        </mxCell>
        <mxCell id="L-mTov4e_6vysFMjAk-3-16" value="&lt;font style=&quot;font-size: 18px;&quot;&gt;&lt;b&gt;用户态&lt;/b&gt;&lt;/font&gt;" style="text;html=1;strokeColor=none;fillColor=none;align=center;verticalAlign=middle;whiteSpace=wrap;rounded=0;" vertex="1" parent="1">
          <mxGeometry x="110" y="230" width="60" height="30" as="geometry" />
        </mxCell>
        <mxCell id="L-mTov4e_6vysFMjAk-3-17" value="&lt;font style=&quot;font-size: 18px;&quot;&gt;&lt;b&gt;内核态&lt;/b&gt;&lt;/font&gt;" style="text;html=1;strokeColor=none;fillColor=none;align=center;verticalAlign=middle;whiteSpace=wrap;rounded=0;" vertex="1" parent="1">
          <mxGeometry x="110" y="410" width="60" height="30" as="geometry" />
        </mxCell>
      </root>
    </mxGraphModel>
  </diagram>
</mxfile>
